<svg width="120" height="120" viewBox="0 0 120 120" xmlns="http://www.w3.org/2000/svg">
  <!-- Human figure body (T-shape with legs) -->
  <!-- Torso (vertical rectangle) -->
  <rect x="50" y="40" width="20" height="35" fill="#8B4513" />
  
  <!-- Shoulder/arm section (horizontal rectangle) -->
  <rect x="35" y="40" width="50" height="15" fill="#8B4513" />
  
  <!-- Legs (two stubby rectangles) -->
  <rect x="52" y="75" width="6" height="12" fill="#8B4513" />
  <rect x="62" y="75" width="6" height="12" fill="#8B4513" />
  
  <!-- Circular head -->
  <circle cx="60" cy="30" r="10" fill="#8B4513" />
  
  <!-- Light green connection lines with circles (8 lines fanning out) -->
  <g stroke="#90EE90" stroke-width="2" fill="none">
    <!-- Left side lines -->
    <line x1="60" y1="20" x2="35" y2="8" />
    <circle cx="35" cy="8" r="3" fill="none" stroke="#90EE90" stroke-width="1.5" />
    
    <line x1="60" y1="20" x2="42" y2="5" />
    <circle cx="42" cy="5" r="3" fill="none" stroke="#90EE90" stroke-width="1.5" />
    
    <line x1="60" y1="20" x2="48" y2="3" />
    <circle cx="48" cy="3" r="3" fill="none" stroke="#90EE90" stroke-width="1.5" />
    
    <line x1="60" y1="20" x2="54" y2="2" />
    <circle cx="54" cy="2" r="3" fill="none" stroke="#90EE90" stroke-width="1.5" />
    
    <!-- Right side lines -->
    <line x1="60" y1="20" x2="66" y2="2" />
    <circle cx="66" cy="2" r="3" fill="none" stroke="#90EE90" stroke-width="1.5" />
    
    <line x1="60" y1="20" x2="72" y2="3" />
    <circle cx="72" cy="3" r="3" fill="none" stroke="#90EE90" stroke-width="1.5" />
    
    <line x1="60" y1="20" x2="78" y2="5" />
    <circle cx="78" cy="5" r="3" fill="none" stroke="#90EE90" stroke-width="1.5" />
    
    <line x1="60" y1="20" x2="85" y2="8" />
    <circle cx="85" cy="8" r="3" fill="none" stroke="#90EE90" stroke-width="1.5" />
  </g>
</svg>

